<svg width="14" height="16" viewBox="0 0 14 16" fill="none" xmlns="http://www.w3.org/2000/svg">
<path d="M4.97042 15.9998C2.58914 15.9861 0.619385 11.1251 0.619385 8.64954C0.619385 4.60566 3.65298 3.72035 4.8221 3.72035C5.34898 3.72035 5.91157 3.92725 6.40779 4.11035C6.75479 4.23807 7.11367 4.36991 7.31326 4.36991C7.43273 4.36991 7.71426 4.25775 7.96282 4.15935C8.49292 3.94832 9.15254 3.68604 9.92067 3.68604C9.92204 3.68604 9.92389 3.68604 9.92523 3.68604C10.4988 3.68604 12.2379 3.81191 13.2834 5.38204L13.5283 5.75007L13.1758 6.01604C12.6723 6.39597 11.7535 7.08904 11.7535 8.46188C11.7535 10.0878 12.794 10.7132 13.2939 11.0139C13.5146 11.1467 13.743 11.2835 13.743 11.5829C13.743 11.7784 12.1829 15.9756 9.91745 15.9756C9.3631 15.9756 8.97126 15.809 8.62564 15.662C8.27592 15.5133 7.97423 15.3851 7.47573 15.3851C7.22304 15.3851 6.90351 15.5046 6.56523 15.6314C6.10295 15.8039 5.5797 15.9998 4.98598 15.9998H4.97042Z" fill="white"/>
<path d="M10.1607 0C10.2197 2.12737 8.69828 3.60325 7.17865 3.51069C6.92824 1.81297 8.69809 0 10.1607 0Z" fill="white"/>
</svg>
