<svg width="55" height="18" viewBox="0 0 55 18" fill="none" xmlns="http://www.w3.org/2000/svg">
<path d="M3.21115 5.00012H4.26115L2.83315 0.800117H1.60915L0.181152 5.00012H1.23115L1.44115 4.34012H3.00115L3.21115 5.00012ZM1.72915 3.44012L2.22115 1.89812L2.71315 3.44012H1.72915Z" fill="white"/>
<path d="M6.38609 2.00012L5.76209 3.90212L5.13809 2.00012H4.14209L5.25209 5.00012H6.27209L7.38209 2.00012H6.38609Z" fill="white"/>
<path d="M9.77314 2.00012V2.28212C9.57514 2.05412 9.28114 1.91612 8.87914 1.91612C8.09314 1.91612 7.44514 2.60612 7.44514 3.50012C7.44514 4.39412 8.09314 5.08412 8.87914 5.08412C9.28114 5.08412 9.57514 4.94612 9.77314 4.71812V5.00012H10.6731V2.00012H9.77314ZM9.05914 4.23212C8.64514 4.23212 8.34514 3.95012 8.34514 3.50012C8.34514 3.05012 8.64514 2.76812 9.05914 2.76812C9.47314 2.76812 9.77314 3.05012 9.77314 3.50012C9.77314 3.95012 9.47314 4.23212 9.05914 4.23212Z" fill="white"/>
<path d="M11.3334 5.00012H12.2334V0.620117H11.3334V5.00012Z" fill="white"/>
<path d="M13.342 1.73612C13.636 1.73612 13.882 1.49012 13.882 1.19612C13.882 0.902117 13.636 0.656117 13.342 0.656117C13.048 0.656117 12.802 0.902117 12.802 1.19612C12.802 1.49012 13.048 1.73612 13.342 1.73612ZM12.892 5.00012H13.792V2.00012H12.892V5.00012Z" fill="white"/>
<path d="M16.2446 1.91612C15.8426 1.91612 15.5486 2.05412 15.3506 2.28212V0.800117H14.4506V5.00012H15.3506V4.71812C15.5486 4.94612 15.8426 5.08412 16.2446 5.08412C17.0306 5.08412 17.6786 4.39412 17.6786 3.50012C17.6786 2.60612 17.0306 1.91612 16.2446 1.91612ZM16.0646 4.23212C15.6506 4.23212 15.3506 3.95012 15.3506 3.50012C15.3506 3.05012 15.6506 2.76812 16.0646 2.76812C16.4786 2.76812 16.7786 3.05012 16.7786 3.50012C16.7786 3.95012 16.4786 4.23212 16.0646 4.23212Z" fill="white"/>
<path d="M18.1889 5.00012H19.0889V0.620117H18.1889V5.00012Z" fill="white"/>
<path d="M20.5515 3.86012H22.6815C22.7055 3.74612 22.7175 3.62612 22.7175 3.50012C22.7175 2.59412 22.0695 1.91612 21.1935 1.91612C20.2455 1.91612 19.5975 2.60612 19.5975 3.50012C19.5975 4.39412 20.2335 5.08412 21.2595 5.08412C21.8295 5.08412 22.2735 4.87412 22.5675 4.46612L21.8475 4.05212C21.7275 4.18412 21.5175 4.28012 21.2715 4.28012C20.9415 4.28012 20.6655 4.17212 20.5515 3.86012ZM20.5335 3.18812C20.6175 2.88212 20.8455 2.71412 21.1875 2.71412C21.4575 2.71412 21.7275 2.84012 21.8235 3.18812H20.5335Z" fill="white"/>
<path d="M26.1679 5.08412C27.0499 5.08412 27.7579 4.39412 27.7579 3.50012C27.7579 2.60612 27.0499 1.91612 26.1679 1.91612C25.2859 1.91612 24.5779 2.60612 24.5779 3.50012C24.5779 4.39412 25.2859 5.08412 26.1679 5.08412ZM26.1679 4.20812C25.778 4.20812 25.4779 3.92612 25.4779 3.50012C25.4779 3.07412 25.778 2.79212 26.1679 2.79212C26.5579 2.79212 26.858 3.07412 26.858 3.50012C26.858 3.92612 26.5579 4.20812 26.1679 4.20812Z" fill="white"/>
<path d="M30.025 1.91612C29.629 1.91612 29.329 2.06012 29.167 2.28212V2.00012H28.267V5.00012H29.167V3.36212C29.167 2.93612 29.395 2.74412 29.725 2.74412C30.013 2.74412 30.247 2.91812 30.247 3.29012V5.00012H31.147V3.15812C31.147 2.34812 30.631 1.91612 30.025 1.91612Z" fill="white"/>
<path d="M35.0231 2.86412V2.00012H34.4051V1.16012L33.5051 1.43012V2.00012H33.0251V2.86412H33.5051V3.92612C33.5051 4.76612 33.8471 5.12012 35.0231 5.00012V4.18412C34.6271 4.20812 34.4051 4.18412 34.4051 3.92612V2.86412H35.0231Z" fill="white"/>
<path d="M37.2906 1.91612C36.8946 1.91612 36.5946 2.06012 36.4326 2.28212V0.800117H35.5326V5.00012H36.4326V3.36212C36.4326 2.93612 36.6606 2.74412 36.9906 2.74412C37.2786 2.74412 37.5126 2.91812 37.5126 3.29012V5.00012H38.4126V3.15812C38.4126 2.34812 37.8966 1.91612 37.2906 1.91612Z" fill="white"/>
<path d="M39.8347 3.86012H41.9647C41.9887 3.74612 42.0007 3.62612 42.0007 3.50012C42.0007 2.59412 41.3527 1.91612 40.4767 1.91612C39.5287 1.91612 38.8807 2.60612 38.8807 3.50012C38.8807 4.39412 39.5167 5.08412 40.5427 5.08412C41.1127 5.08412 41.5567 4.87412 41.8507 4.46612L41.1307 4.05212C41.0107 4.18412 40.8007 4.28012 40.5547 4.28012C40.2247 4.28012 39.9487 4.17212 39.8347 3.86012ZM39.8167 3.18812C39.9007 2.88212 40.1287 2.71412 40.4707 2.71412C40.7407 2.71412 41.0107 2.84012 41.1067 3.18812H39.8167Z" fill="white"/>
<path d="M5.23115 16.0001H6.98115L4.60115 9.00012H2.56115L0.181152 16.0001H1.93115L2.28115 14.9001H4.88115L5.23115 16.0001ZM2.76115 13.4001L3.58115 10.8301L4.40115 13.4001H2.76115Z" fill="white"/>
<path d="M10.518 10.8601C9.84803 10.8601 9.35803 11.0901 9.02803 11.4701V11.0001H7.52803V18.0001H9.02803V15.5301C9.35803 15.9101 9.84803 16.1401 10.518 16.1401C11.828 16.1401 12.908 14.9901 12.908 13.5001C12.908 12.0101 11.828 10.8601 10.518 10.8601ZM10.218 14.7201C9.52803 14.7201 9.02803 14.2501 9.02803 13.5001C9.02803 12.7501 9.52803 12.2801 10.218 12.2801C10.908 12.2801 11.408 12.7501 11.408 13.5001C11.408 14.2501 10.908 14.7201 10.218 14.7201Z" fill="white"/>
<path d="M16.7485 10.8601C16.0785 10.8601 15.5885 11.0901 15.2585 11.4701V11.0001H13.7585V18.0001H15.2585V15.5301C15.5885 15.9101 16.0785 16.1401 16.7485 16.1401C18.0585 16.1401 19.1385 14.9901 19.1385 13.5001C19.1385 12.0101 18.0585 10.8601 16.7485 10.8601ZM16.4485 14.7201C15.7585 14.7201 15.2585 14.2501 15.2585 13.5001C15.2585 12.7501 15.7585 12.2801 16.4485 12.2801C17.1385 12.2801 17.6385 12.7501 17.6385 13.5001C17.6385 14.2501 17.1385 14.7201 16.4485 14.7201Z" fill="white"/>
<path d="M19.989 16.0001H21.489V8.70012H19.989V16.0001Z" fill="white"/>
<path d="M23.9266 14.1001H27.4766C27.5166 13.9101 27.5366 13.7101 27.5366 13.5001C27.5366 11.9901 26.4566 10.8601 24.9966 10.8601C23.4166 10.8601 22.3366 12.0101 22.3366 13.5001C22.3366 14.9901 23.3966 16.1401 25.1066 16.1401C26.0566 16.1401 26.7966 15.7901 27.2866 15.1101L26.0866 14.4201C25.8866 14.6401 25.5366 14.8001 25.1266 14.8001C24.5766 14.8001 24.1166 14.6201 23.9266 14.1001ZM23.8966 12.9801C24.0366 12.4701 24.4166 12.1901 24.9866 12.1901C25.4366 12.1901 25.8866 12.4001 26.0466 12.9801H23.8966Z" fill="white"/>
<path d="M33.3874 16.1401C34.9074 16.1401 35.9874 15.3401 35.9874 13.9901C35.9874 12.5101 34.7974 12.1401 33.7374 11.8201C32.6474 11.4901 32.4774 11.2701 32.4774 10.9501C32.4774 10.6701 32.7274 10.4201 33.2274 10.4201C33.8674 10.4201 34.1974 10.7301 34.4374 11.2301L35.7874 10.4401C35.2774 9.41012 34.3774 8.86012 33.2274 8.86012C32.0174 8.86012 30.8774 9.64012 30.8774 10.9901C30.8774 12.3301 31.8974 12.8301 32.9374 13.1201C33.9874 13.4101 34.3874 13.5801 34.3874 14.0101C34.3874 14.2801 34.1974 14.5801 33.4374 14.5801C32.6474 14.5801 32.2174 14.1901 31.9674 13.6101L30.5874 14.4101C30.9774 15.4401 31.9174 16.1401 33.3874 16.1401Z" fill="white"/>
<path d="M39.5205 12.4401V11.0001H38.4905V9.60012L36.9905 10.0501V11.0001H36.1905V12.4401H36.9905V14.2101C36.9905 15.6101 37.5605 16.2001 39.5205 16.0001V14.6401C38.8605 14.6801 38.4905 14.6401 38.4905 14.2101V12.4401H39.5205Z" fill="white"/>
<path d="M42.6722 16.1401C44.1422 16.1401 45.3222 14.9901 45.3222 13.5001C45.3222 12.0101 44.1422 10.8601 42.6722 10.8601C41.2022 10.8601 40.0222 12.0101 40.0222 13.5001C40.0222 14.9901 41.2022 16.1401 42.6722 16.1401ZM42.6722 14.6801C42.0222 14.6801 41.5222 14.2101 41.5222 13.5001C41.5222 12.7901 42.0222 12.3201 42.6722 12.3201C43.3222 12.3201 43.8222 12.7901 43.8222 13.5001C43.8222 14.2101 43.3222 14.6801 42.6722 14.6801Z" fill="white"/>
<path d="M47.6706 11.8901V11.0001H46.1706V16.0001H47.6706V13.7401C47.6706 12.7501 48.5506 12.5001 49.1706 12.6001V10.9001C48.5406 10.9001 47.8706 11.2201 47.6706 11.8901Z" fill="white"/>
<path d="M51.0653 14.1001H54.6153C54.6553 13.9101 54.6753 13.7101 54.6753 13.5001C54.6753 11.9901 53.5953 10.8601 52.1353 10.8601C50.5553 10.8601 49.4753 12.0101 49.4753 13.5001C49.4753 14.9901 50.5353 16.1401 52.2453 16.1401C53.1953 16.1401 53.9353 15.7901 54.4253 15.1101L53.2253 14.4201C53.0253 14.6401 52.6753 14.8001 52.2653 14.8001C51.7153 14.8001 51.2553 14.6201 51.0653 14.1001ZM51.0353 12.9801C51.1753 12.4701 51.5553 12.1901 52.1253 12.1901C52.5753 12.1901 53.0253 12.4001 53.1853 12.9801H51.0353Z" fill="white"/>
</svg>
