<svg width="17" height="16" viewBox="0 0 17 16" fill="none" xmlns="http://www.w3.org/2000/svg">
<path d="M0.419986 15.4667H2.01999V6.66667C2.01999 6.5194 2.13939 6.4 2.28665 6.4H6.01999V0.266667C6.01999 0.1194 6.13939 0 6.28665 0H13.22C13.3673 0 13.4867 0.1194 13.4867 0.266667V15.4667H15.8867C16.0339 15.4667 16.1533 15.5861 16.1533 15.7333C16.1533 15.8806 16.0339 16 15.8867 16H0.419986C0.272719 16 0.15332 15.8806 0.15332 15.7333C0.15332 15.5861 0.272719 15.4667 0.419986 15.4667ZM10.5533 15.4667H11.62V13.0667C11.62 12.9194 11.5006 12.8 11.3533 12.8H10.82C10.6727 12.8 10.5533 12.9194 10.5533 13.0667V15.4667ZM9.48665 6.66667V15.4667H10.02V13.0667C10.02 12.6248 10.3782 12.2667 10.82 12.2667H11.3533C11.7952 12.2667 12.1533 12.6248 12.1533 13.0667V15.4667H12.9533V0.533333H6.55332V6.4H9.21999C9.36725 6.4 9.48665 6.5194 9.48665 6.66667ZM2.55332 15.4667H8.95332V6.93333H2.55332V15.4667Z" fill="#84829A"/>
<path d="M7.61991 3.7334H9.21991C9.36717 3.7334 9.48657 3.8528 9.48657 4.00007V5.60007C9.48657 5.74733 9.36717 5.86673 9.21991 5.86673H7.61991C7.47264 5.86673 7.35324 5.74733 7.35324 5.60007V4.00007C7.35324 3.8528 7.47264 3.7334 7.61991 3.7334ZM7.88657 5.3334H8.95324V4.26673H7.88657V5.3334Z" fill="#84829A"/>
<path d="M7.61991 1.06665H9.21991C9.36717 1.06665 9.48657 1.18605 9.48657 1.33332V2.93332C9.48657 3.08058 9.36717 3.19998 9.21991 3.19998H7.61991C7.47264 3.19998 7.35324 3.08058 7.35324 2.93332V1.33332C7.35324 1.18605 7.47264 1.06665 7.61991 1.06665ZM7.88657 2.66665H8.95324V1.59998H7.88657V2.66665Z" fill="#84829A"/>
<path d="M10.2867 3.7334H11.8867C12.0339 3.7334 12.1533 3.8528 12.1533 4.00007V5.60007C12.1533 5.74733 12.0339 5.86673 11.8867 5.86673H10.2867C10.1394 5.86673 10.02 5.74733 10.02 5.60007V4.00007C10.02 3.8528 10.1394 3.7334 10.2867 3.7334ZM10.5533 5.3334H11.62V4.26673H10.5533V5.3334Z" fill="#84829A"/>
<path d="M10.2867 1.06665H11.8867C12.0339 1.06665 12.1533 1.18605 12.1533 1.33332V2.93332C12.1533 3.08058 12.0339 3.19998 11.8867 3.19998H10.2867C10.1394 3.19998 10.02 3.08058 10.02 2.93332V1.33332C10.02 1.18605 10.1394 1.06665 10.2867 1.06665ZM10.5533 2.66665H11.62V1.59998H10.5533V2.66665Z" fill="#84829A"/>
<path d="M10.2867 6.3999H11.8867C12.0339 6.3999 12.1533 6.5193 12.1533 6.66657V8.26657C12.1533 8.41384 12.0339 8.53324 11.8867 8.53324H10.2867C10.1394 8.53324 10.02 8.41384 10.02 8.26657V6.66657C10.02 6.5193 10.1394 6.3999 10.2867 6.3999ZM10.5533 7.9999H11.62V6.93324H10.5533V7.9999Z" fill="#84829A"/>
<path d="M10.2867 9.06665H11.8867C12.0339 9.06665 12.1533 9.18605 12.1533 9.33332V10.9333C12.1533 11.0806 12.0339 11.2 11.8867 11.2H10.2867C10.1394 11.2 10.02 11.0806 10.02 10.9333V9.33332C10.02 9.18605 10.1394 9.06665 10.2867 9.06665ZM10.5533 10.6667H11.62V9.59998H10.5533V10.6667Z" fill="#84829A"/>
<path d="M5.21991 12.2666H3.61991C3.47264 12.2666 3.35324 12.1472 3.35324 12V10.4C3.35324 10.2527 3.47264 10.1333 3.61991 10.1333H5.21991C5.36717 10.1333 5.48657 10.2527 5.48657 10.4V12C5.48657 12.1472 5.36717 12.2666 5.21991 12.2666ZM4.95324 10.6666H3.88657V11.7333H4.95324V10.6666Z" fill="#84829A"/>
<path d="M5.21991 9.59989H3.61991C3.47264 9.59989 3.35324 9.48049 3.35324 9.33322V7.73322C3.35324 7.58595 3.47264 7.46655 3.61991 7.46655H5.21991C5.36717 7.46655 5.48657 7.58595 5.48657 7.73322V9.33322C5.48657 9.48049 5.36717 9.59989 5.21991 9.59989ZM4.95324 7.99989H3.88657V9.06655H4.95324V7.99989Z" fill="#84829A"/>
<path d="M5.21991 14.9334H3.61991C3.47264 14.9334 3.35324 14.814 3.35324 14.6667V13.0667C3.35324 12.9194 3.47264 12.8 3.61991 12.8H5.21991C5.36717 12.8 5.48657 12.9194 5.48657 13.0667V14.6667C5.48657 14.814 5.36717 14.9334 5.21991 14.9334ZM4.95324 13.3334H3.88657V14.4H4.95324V13.3334Z" fill="#84829A"/>
<path d="M7.88665 12.2666H6.28665C6.13939 12.2666 6.01999 12.1472 6.01999 12V10.4C6.01999 10.2527 6.13939 10.1333 6.28665 10.1333H7.88665C8.03392 10.1333 8.15332 10.2527 8.15332 10.4V12C8.15332 12.1472 8.03392 12.2666 7.88665 12.2666ZM7.61999 10.6666H6.55332V11.7333H7.61999V10.6666Z" fill="#84829A"/>
<path d="M7.88665 9.59989H6.28665C6.13939 9.59989 6.01999 9.48049 6.01999 9.33322V7.73322C6.01999 7.58595 6.13939 7.46655 6.28665 7.46655H7.88665C8.03392 7.46655 8.15332 7.58595 8.15332 7.73322V9.33322C8.15332 9.48049 8.03392 9.59989 7.88665 9.59989ZM7.61999 7.99989H6.55332V9.06655H7.61999V7.99989Z" fill="#84829A"/>
<path d="M7.88665 14.9334H6.28665C6.13939 14.9334 6.01999 14.814 6.01999 14.6667V13.0667C6.01999 12.9194 6.13939 12.8 6.28665 12.8H7.88665C8.03392 12.8 8.15332 12.9194 8.15332 13.0667V14.6667C8.15332 14.814 8.03392 14.9334 7.88665 14.9334ZM7.61999 13.3334H6.55332V14.4H7.61999V13.3334Z" fill="#84829A"/>
</svg>
