<svg width="23" height="22" viewBox="0 0 23 22" fill="none" xmlns="http://www.w3.org/2000/svg">
<path d="M0.69805 4.47549C0.401482 4.47549 0.158834 4.23284 0.153442 3.93627V0.544608C0.153442 0.242647 0.39609 0 0.69805 0H4.08972C4.38629 0 4.62893 0.242647 4.62893 0.544608V1.72549H17.678V0.544608C17.678 0.248039 17.9206 0.00539216 18.2172 0H21.6088C21.9054 0 22.1481 0.242647 22.1534 0.544608V3.93627C22.1534 4.23284 21.9108 4.47549 21.6088 4.47549H20.428V17.5245H21.6088C21.9054 17.5245 22.1481 17.7672 22.1534 18.0637V21.4554C22.1534 21.752 21.9108 21.9946 21.6088 22H18.2172C17.9206 22 17.678 21.7574 17.678 21.4554V20.2745H4.62893V21.4554C4.62893 21.752 4.38629 21.9946 4.08972 22H0.69805C0.401482 22 0.158834 21.7574 0.153442 21.4554V18.0637C0.153442 17.7672 0.39609 17.5245 0.69805 17.5245H1.87893V4.47549H0.69805ZM21.075 3.39706V1.07843H18.7564V3.39706H21.075ZM18.7564 20.9216H21.075V18.6029H18.7564V20.9216ZM4.62893 18.0637V19.1961H17.678V18.0637C17.678 17.7672 17.9206 17.5245 18.2172 17.5245H19.3495V4.47549H18.2172C17.9206 4.47549 17.678 4.23284 17.678 3.93627V2.80392H4.62893V3.93627C4.62893 4.23284 4.38629 4.47549 4.08972 4.47549H2.95736V17.5245H4.08972C4.38629 17.5245 4.62893 17.7672 4.62893 18.0637ZM1.23187 18.6029V20.9216H3.5505V18.6029H1.23187ZM3.5505 3.39706V1.07843H1.23187V3.39706H3.5505Z" fill="white"/>
</svg>
