<svg width="375" height="276" viewBox="0 0 375 276" fill="none" xmlns="http://www.w3.org/2000/svg">
<path d="M130.659 368.92C61.3258 368.92 5.11924 312.635 5.11924 243.202C5.11924 173.769 61.3258 117.484 130.659 117.484C199.992 117.484 256.198 173.769 256.198 243.202C256.198 312.635 199.992 368.92 130.659 368.92Z" stroke="#6246E5"/>
<path d="M143.926 373.902C66.35 373.902 3.46093 310.925 3.46093 233.237C3.46093 155.55 66.35 92.5727 143.926 92.5727C221.502 92.5728 284.391 155.55 284.391 233.237C284.391 310.925 221.502 373.902 143.926 373.902Z" stroke="#6246E5"/>
<path d="M154.706 378.885C69.8022 378.885 0.973195 309.959 0.973199 224.934C0.973203 139.909 69.8022 70.9834 154.706 70.9834C239.609 70.9834 308.438 139.909 308.438 224.934C308.438 309.959 239.609 378.885 154.706 378.885Z" stroke="#6246E5"/>
<path d="M170.461 382.206C79.1461 382.206 5.11965 308.076 5.11965 216.63C5.11966 125.184 79.1461 51.0542 170.461 51.0542C261.776 51.0542 335.802 125.184 335.802 216.63C335.802 308.076 261.776 382.206 170.461 382.206Z" stroke="#6246E5"/>
<path d="M185.801 385.527C88.3038 385.527 9.26549 306.378 9.2655 208.741C9.2655 111.104 88.3039 31.9551 185.801 31.9551C283.298 31.9551 362.337 111.104 362.337 208.741C362.337 306.378 283.298 385.527 185.801 385.527Z" stroke="#6246E5"/>
<path d="M203.214 389.68C96.1001 389.68 9.26549 302.723 9.26549 195.456C9.2655 88.1879 96.1001 1.23143 203.214 1.23144C310.329 1.23144 397.163 88.1879 397.163 195.456C397.163 302.723 310.329 389.68 203.214 389.68Z" stroke="#6246E5"/>
</svg>
