<svg width="21" height="20" viewBox="0 0 21 20" fill="none" xmlns="http://www.w3.org/2000/svg">
<g clip-path="url(#clip0_1_521)">
<path d="M11.6886 10.0018L1.64508 19.673C1.17476 19.3516 0.895517 18.817 0.900455 18.2473V1.75626C0.895517 1.18663 1.17476 0.65199 1.64508 0.330566L11.6886 10.0018Z" fill="#2196F3"/>
<path d="M15.2029 6.62364L11.6885 10.0018L1.64502 0.330532C1.68286 0.301203 1.72228 0.273918 1.76306 0.248803C2.29387 -0.0729183 2.95689 -0.0833047 3.49754 0.22156L15.2029 6.62364Z" fill="#4CAF50"/>
<path d="M19.4618 10.0017C19.4683 10.6447 19.1189 11.2387 18.5537 11.5454L15.2028 13.3798L11.6885 10.0017L15.2028 6.62354L18.5537 8.45788C19.1189 8.76462 19.4683 9.3586 19.4618 10.0017Z" fill="#F0BB1F"/>
<path d="M15.2029 13.3801L3.49754 19.7822C2.9557 20.0823 2.29519 20.0719 1.76306 19.7549C1.72228 19.7298 1.68286 19.7025 1.64502 19.6732L11.6886 10.002L15.2029 13.3801Z" fill="#F15A2B"/>
</g>
<defs>
<clipPath id="clip0_1_521">
<rect width="20" height="20" fill="white" transform="translate(0.181152)"/>
</clipPath>
</defs>
</svg>
