<svg width="55" height="16" viewBox="0 0 55 16" fill="none" xmlns="http://www.w3.org/2000/svg">
<path d="M6.20514 2.88009H3.39714V4.00009H4.89314C4.69314 4.53609 4.20514 4.86409 3.46114 4.86409C2.37314 4.86409 1.70114 4.16809 1.70114 3.21609C1.70114 2.23209 2.40514 1.53609 3.34914 1.53609C3.98114 1.53609 4.48514 1.82409 4.71714 2.19209L5.80514 1.56809C5.33314 0.816086 4.42914 0.288086 3.35714 0.288086C1.70914 0.288086 0.421143 1.58409 0.421143 3.20809C0.421143 4.81609 1.68514 6.11209 3.44514 6.11209C5.01314 6.11209 6.20514 5.07209 6.20514 3.36009V2.88009Z" fill="white"/>
<path d="M7.80677 4.76809V3.77609H9.80677V2.56009H7.80677V1.63209H10.0068V0.400086H6.52677V6.00009H10.0468V4.76809H7.80677Z" fill="white"/>
<path d="M14.129 0.400086H9.96896V1.63209H11.409V6.00009H12.689V1.63209H14.129V0.400086Z" fill="white"/>
<path d="M15.8893 0.400086V6.00009H17.1693V0.400086H15.8893Z" fill="white"/>
<path d="M21.4915 0.400086H17.3315V1.63209H18.7715V6.00009H20.0515V1.63209H21.4915V0.400086Z" fill="white"/>
<path d="M25.9238 6.11209C27.5318 6.11209 28.8358 4.84809 28.8358 3.20009C28.8358 1.55209 27.5318 0.288086 25.9238 0.288086C24.3158 0.288086 23.0118 1.55209 23.0118 3.20009C23.0118 4.84809 24.3158 6.11209 25.9238 6.11209ZM25.9238 4.86409C25.0118 4.86409 24.2918 4.20009 24.2918 3.20009C24.2918 2.20009 25.0118 1.53609 25.9238 1.53609C26.8358 1.53609 27.5558 2.20009 27.5558 3.20009C27.5558 4.20009 26.8358 4.86409 25.9238 4.86409Z" fill="white"/>
<path d="M32.2765 0.400086V3.44009L30.1165 0.400086H29.1565V6.00009H30.4365V2.96009L32.5965 6.00009H33.5565V0.400086H32.2765Z" fill="white"/>
<path d="M6.20514 12.3921V12.6081C6.20514 13.3068 5.95714 13.8961 5.46114 14.3761C4.96514 14.8508 4.31181 15.0881 3.50114 15.0881C2.64781 15.0881 1.94381 14.8108 1.38914 14.2561C0.834476 13.6961 0.557143 13.0108 0.557143 12.2001C0.557143 11.3894 0.831809 10.7068 1.38114 10.1521C1.93048 9.59209 2.62648 9.31209 3.46914 9.31209C3.98114 9.31209 4.45048 9.43475 4.87714 9.68009C5.30914 9.92542 5.64248 10.2534 5.87714 10.6641L5.50114 10.8881C5.31448 10.5361 5.03714 10.2534 4.66914 10.0401C4.30648 9.82675 3.90648 9.72009 3.46914 9.72009C2.74381 9.72009 2.14648 9.96009 1.67714 10.4401C1.21314 10.9148 0.981143 11.5014 0.981143 12.2001C0.981143 12.8988 1.21581 13.4881 1.68514 13.9681C2.15448 14.4428 2.75981 14.6801 3.50114 14.6801C4.15714 14.6801 4.68781 14.5014 5.09314 14.1441C5.49848 13.7868 5.72514 13.3361 5.77314 12.7921H3.39714V12.3921H6.20514Z" fill="white"/>
<path d="M11.8838 14.2481C11.3238 14.8081 10.6411 15.0881 9.83577 15.0881C9.03043 15.0881 8.34777 14.8081 7.78777 14.2481C7.22777 13.6828 6.94777 13.0001 6.94777 12.2001C6.94777 11.4001 7.22777 10.7201 7.78777 10.1601C8.34777 9.59475 9.03043 9.31209 9.83577 9.31209C10.6411 9.31209 11.3238 9.59475 11.8838 10.1601C12.4438 10.7201 12.7238 11.4001 12.7238 12.2001C12.7238 13.0001 12.4438 13.6828 11.8838 14.2481ZM8.08377 13.9601C8.56377 14.4401 9.14777 14.6801 9.83577 14.6801C10.5238 14.6801 11.1051 14.4401 11.5798 13.9601C12.0598 13.4748 12.2998 12.8881 12.2998 12.2001C12.2998 11.5121 12.0598 10.9281 11.5798 10.4481C11.1051 9.96275 10.5238 9.72009 9.83577 9.72009C9.14777 9.72009 8.56377 9.96275 8.08377 10.4481C7.6091 10.9281 7.37177 11.5121 7.37177 12.2001C7.37177 12.8881 7.6091 13.4748 8.08377 13.9601Z" fill="white"/>
<path d="M18.415 14.2481C17.855 14.8081 17.1724 15.0881 16.367 15.0881C15.5617 15.0881 14.879 14.8081 14.319 14.2481C13.759 13.6828 13.479 13.0001 13.479 12.2001C13.479 11.4001 13.759 10.7201 14.319 10.1601C14.879 9.59475 15.5617 9.31209 16.367 9.31209C17.1724 9.31209 17.855 9.59475 18.415 10.1601C18.975 10.7201 19.255 11.4001 19.255 12.2001C19.255 13.0001 18.975 13.6828 18.415 14.2481ZM14.615 13.9601C15.095 14.4401 15.679 14.6801 16.367 14.6801C17.055 14.6801 17.6364 14.4401 18.111 13.9601C18.591 13.4748 18.831 12.8881 18.831 12.2001C18.831 11.5121 18.591 10.9281 18.111 10.4481C17.6364 9.96275 17.055 9.72009 16.367 9.72009C15.679 9.72009 15.095 9.96275 14.615 10.4481C14.1404 10.9281 13.903 11.5121 13.903 12.2001C13.903 12.8881 14.1404 13.4748 14.615 13.9601Z" fill="white"/>
<path d="M25.6583 12.3921V12.6081C25.6583 13.3068 25.4103 13.8961 24.9143 14.3761C24.4183 14.8508 23.7649 15.0881 22.9543 15.0881C22.1009 15.0881 21.3969 14.8108 20.8423 14.2561C20.2876 13.6961 20.0103 13.0108 20.0103 12.2001C20.0103 11.3894 20.2849 10.7068 20.8343 10.1521C21.3836 9.59209 22.0796 9.31209 22.9223 9.31209C23.4343 9.31209 23.9036 9.43475 24.3303 9.68009C24.7623 9.92542 25.0956 10.2534 25.3303 10.6641L24.9543 10.8881C24.7676 10.5361 24.4903 10.2534 24.1223 10.0401C23.7596 9.82675 23.3596 9.72009 22.9223 9.72009C22.1969 9.72009 21.5996 9.96009 21.1303 10.4401C20.6663 10.9148 20.4343 11.5014 20.4343 12.2001C20.4343 12.8988 20.6689 13.4881 21.1383 13.9681C21.6076 14.4428 22.2129 14.6801 22.9543 14.6801C23.6103 14.6801 24.1409 14.5014 24.5463 14.1441C24.9516 13.7868 25.1783 13.3361 25.2263 12.7921H22.8503V12.3921H25.6583Z" fill="white"/>
<path d="M27.1449 14.6001H29.7849V15.0001H26.7209V9.40009H27.1449V14.6001Z" fill="white"/>
<path d="M31.0902 14.6001H33.8902V15.0001H30.6662V9.40009H33.8502V9.80009H31.0902V11.9761H33.6502V12.3761H31.0902V14.6001Z" fill="white"/>
<path d="M38.9686 9.40009C39.47 9.40009 39.886 9.56542 40.2166 9.89609C40.5473 10.2268 40.7126 10.6401 40.7126 11.1361C40.7126 11.6321 40.5473 12.0454 40.2166 12.3761C39.886 12.7014 39.47 12.8641 38.9686 12.8641H37.4886V15.0001H37.0646V9.40009H38.9686ZM38.9686 12.4641C39.3526 12.4641 39.6673 12.3388 39.9126 12.0881C40.1633 11.8374 40.2886 11.5201 40.2886 11.1361C40.2886 10.7468 40.1633 10.4268 39.9126 10.1761C39.6673 9.92542 39.3526 9.80009 38.9686 9.80009H37.4886V12.4641H38.9686Z" fill="white"/>
<path d="M42.184 14.6001H44.824V15.0001H41.76V9.40009H42.184V14.6001Z" fill="white"/>
<path d="M49.6295 15.0001L49.0855 13.5761H46.2775L45.7335 15.0001H45.2855L47.4615 9.40009H47.9095L50.0775 15.0001H49.6295ZM46.4375 13.1761H48.9335L47.6855 9.92009L46.4375 13.1761Z" fill="white"/>
<path d="M54.062 9.40009L52.022 12.6961V15.0001H51.598V12.6961L49.558 9.40009H50.038L51.814 12.2881L53.582 9.40009H54.062Z" fill="white"/>
</svg>
