<svg width="21" height="20" viewBox="0 0 21 20" fill="none" xmlns="http://www.w3.org/2000/svg">
<path d="M18.5178 2.45457C17.4833 1.34265 16.0337 0.709981 14.515 0.707636C12.995 0.709395 11.544 1.34173 10.5079 2.45386L10.1548 2.82698L9.80168 2.45386C7.74583 0.241198 4.28547 0.114128 2.07285 2.16998C1.9748 2.26112 1.88011 2.35577 1.78897 2.45386C-0.391897 4.80619 -0.391897 8.44162 1.78897 10.794L9.63587 19.069C9.90735 19.3556 10.3598 19.3679 10.6464 19.0964C10.6557 19.0875 10.6649 19.0784 10.6737 19.069L18.5178 10.794C20.6985 8.44187 20.6985 4.80665 18.5178 2.45457ZM17.4835 9.80969H17.4828L10.1548 17.5386L2.82614 9.80969C1.16008 8.01229 1.16008 5.23481 2.82614 3.43741C4.33912 1.79757 6.89504 1.69475 8.53488 3.20773C8.6145 3.28119 8.6911 3.35779 8.76456 3.43741L9.63587 4.35663C9.92301 4.64193 10.3866 4.64193 10.6737 4.35663L11.5451 3.43812C13.058 1.79828 15.614 1.69546 17.2538 3.20844C17.3334 3.2819 17.41 3.35851 17.4835 3.43812C19.164 5.23837 19.1763 8.02092 17.4835 9.80969Z" fill="#4152CA"/>
</svg>
