<svg width="15" height="14" viewBox="0 0 15 14" fill="none" xmlns="http://www.w3.org/2000/svg">
<g clip-path="url(#clip0_1_199)">
<path d="M13.8078 0.150827C13.439 0.0428744 4.41589 -0.855475 1.24705 3.42567C-0.15639 5.32223 -0.177472 7.9221 1.17673 11.1525C0.833206 11.8655 0.53248 12.6166 0.287399 13.4091C0.212887 13.6499 0.347664 13.9052 0.588207 13.9795C0.63305 13.9934 0.678468 14 0.723312 14C0.91778 14 1.09833 13.8744 1.1586 13.6787C3.57381 5.87028 11.4227 2.09267 13.8297 1.13835C14.0639 1.0454 14.3769 0.317405 13.8078 0.150827Z" fill="#84829A"/>
<path d="M2.62524 12.1298C3.93164 12.6778 5.23785 12.9587 6.45254 12.9587C7.54435 12.9587 8.56255 12.7342 9.43995 12.279C11.2058 11.363 12.2848 9.61081 12.5604 7.21132C12.8411 4.7659 13.1906 3.23416 13.4822 2.29712C10.8869 3.49428 5.3221 6.5974 2.62524 12.1298Z" fill="#84829A"/>
</g>
<defs>
<clipPath id="clip0_1_199">
<rect width="14" height="14" fill="white" transform="translate(0.15332)"/>
</clipPath>
</defs>
</svg>
