<svg width="15" height="14" viewBox="0 0 15 14" fill="none" xmlns="http://www.w3.org/2000/svg">
<g clip-path="url(#clip0_1_213)">
<path d="M13.6541 3.56123e-08C13.5764 -2.92608e-05 13.4998 0.0180173 13.4303 0.0527336L9.64141 1.94771L5.35698 0.0432416C5.34998 0.0402533 5.34198 0.039726 5.33448 0.0367378C5.3152 0.0295308 5.29549 0.0235251 5.27548 0.0187497C5.25559 0.0133885 5.23537 0.00919911 5.21498 0.00624017C5.17438 0.00290038 5.13357 0.00290038 5.09299 0.00624017C5.0726 0.00919911 5.05239 0.0133885 5.03249 0.0187497C5.01248 0.0235251 4.99277 0.0295308 4.97349 0.0367378C4.96599 0.039726 4.95799 0.040224 4.95099 0.0432416L0.45106 2.04322C0.270418 2.12343 0.154023 2.30255 0.154053 2.50019V13.5C0.154141 13.6692 0.239715 13.8268 0.381539 13.919C0.523393 14.0114 0.702306 14.0257 0.85702 13.957L5.15396 12.047L9.45089 13.957C9.45839 13.96 9.46639 13.957 9.47389 13.9615C9.59494 14.0157 9.7339 14.0126 9.85237 13.953C9.86037 13.9496 9.86936 13.953 9.87736 13.9475L13.8773 11.9476C14.0468 11.8629 14.1539 11.6896 14.1538 11.5V0.500237C14.154 0.224088 13.9302 0.000117221 13.6541 3.56123e-08ZM4.65398 11.1751L1.15403 12.7305V2.8252L4.65398 1.26971V11.1751ZM9.15391 12.7305L5.65396 11.1751V1.26971L9.15391 2.82517V12.7305ZM13.1538 11.1911L10.1539 12.691V2.80918L13.1538 1.3092V11.1911Z" fill="#84829A"/>
</g>
<defs>
<clipPath id="clip0_1_213">
<rect width="14" height="14" fill="white" transform="translate(0.15332)"/>
</clipPath>
</defs>
</svg>
