<svg width="15" height="14" viewBox="0 0 15 14" fill="none" xmlns="http://www.w3.org/2000/svg">
<path d="M12.4967 1.24239L6.17921 7.58322C6.10679 7.54126 6.03063 7.50611 5.95171 7.47822L1.78088 6.06656C1.65475 6.03495 1.54279 5.9621 1.4628 5.85958C1.3828 5.75706 1.33936 5.63076 1.33936 5.50072C1.33936 5.37069 1.3828 5.24439 1.4628 5.14187C1.54279 5.03935 1.65475 4.9665 1.78088 4.93489L12.1292 1.25406C12.1969 1.23109 12.2678 1.21927 12.3392 1.21906C12.3926 1.2182 12.4458 1.22608 12.4967 1.24239Z" fill="#84829A"/>
<path d="M12.8992 2.02424L9.21835 12.3842C9.17776 12.505 9.09877 12.6091 8.99344 12.6807C8.88811 12.7524 8.76222 12.7875 8.63502 12.7809C8.50635 12.7868 8.37934 12.7499 8.27382 12.6761C8.1683 12.6022 8.09019 12.4955 8.05168 12.3726L6.66335 8.20174C6.63546 8.12282 6.60031 8.04666 6.55835 7.97424L12.9109 1.65674C12.9467 1.77729 12.9426 1.9062 12.8992 2.02424Z" fill="#84829A"/>
</svg>
