<svg width="23" height="18" viewBox="0 0 23 18" fill="none" xmlns="http://www.w3.org/2000/svg">
<path d="M19.9718 17.9286C19.5217 17.9378 19.0795 17.809 18.7047 17.5595C18.4257 17.3772 18.0997 17.2802 17.7664 17.2802C17.4332 17.2802 17.1071 17.3772 16.8281 17.5595C16.4495 17.8006 16.01 17.9286 15.5612 17.9286C15.1123 17.9286 14.6728 17.8006 14.2942 17.5595C14.0152 17.377 13.6891 17.2799 13.3558 17.2799C13.0224 17.2799 12.6963 17.377 12.4173 17.5595C12.0387 17.8006 11.5992 17.9286 11.1504 17.9286C10.7015 17.9286 10.262 17.8006 9.88339 17.5595C9.60461 17.3772 9.27872 17.28 8.9456 17.28C8.61248 17.28 8.28659 17.3772 8.00782 17.5595C7.66455 17.7876 7.26394 17.9144 6.85193 17.9253L6.82922 17.2767C7.13356 17.2695 7.4291 17.1732 7.67928 16.9997C8.05779 16.7587 8.49721 16.6307 8.94593 16.6307C9.39465 16.6307 9.83406 16.7587 10.2126 16.9997C10.4915 17.1821 10.8176 17.2792 11.1508 17.2792C11.4841 17.2792 11.8102 17.1821 12.0891 16.9997C12.4678 16.7585 12.9074 16.6304 13.3564 16.6304C13.8054 16.6304 14.245 16.7585 14.6237 16.9997C14.9027 17.1821 15.2287 17.2792 15.562 17.2792C15.8953 17.2792 16.2213 17.1821 16.5003 16.9997C16.8789 16.7588 17.3184 16.6308 17.7672 16.6308C18.216 16.6308 18.6556 16.7588 19.0342 16.9997C19.3138 17.1825 19.6407 17.2799 19.9747 17.2799C20.3088 17.2799 20.6357 17.1825 20.9153 16.9997C21.2897 16.751 21.7311 16.6224 22.1805 16.6313V17.2799C21.8459 17.2708 21.5171 17.3686 21.2419 17.5592C20.8661 17.809 20.423 17.9379 19.9718 17.9286Z" fill="white"/>
<path d="M2.33187 17.9285C1.88181 17.9378 1.4397 17.809 1.06506 17.5594C0.789935 17.3686 0.461114 17.2707 0.126465 17.2798V16.6312C0.576635 16.6218 1.01886 16.7506 1.3936 17.0002C1.66857 17.191 1.99731 17.289 2.33187 17.2798C2.66658 17.289 2.99546 17.1909 3.27046 16.9999C3.6444 16.7504 4.0859 16.6217 4.53533 16.6312C4.97386 16.6213 5.40514 16.7442 5.77262 16.9837L5.44538 17.5435C5.17695 17.3628 4.85875 17.2706 4.53533 17.2798C4.202 17.2708 3.87452 17.3685 3.60063 17.5587C3.22556 17.809 2.78267 17.9381 2.33187 17.9285Z" fill="white"/>
<path d="M19.9728 15.6579C19.5224 15.6671 19.0799 15.5383 18.7047 15.2888C18.4255 15.1064 18.0992 15.0092 17.7657 15.0092C17.4321 15.0092 17.1058 15.1064 16.8266 15.2888C16.448 15.5298 16.0085 15.6578 15.5598 15.6578C15.111 15.6578 14.6715 15.5298 14.293 15.2888C14.0141 15.1065 13.6882 15.0094 13.355 15.0094C13.0218 15.0094 12.6959 15.1065 12.4171 15.2888C12.0385 15.5299 11.599 15.6579 11.1503 15.6579C10.7015 15.6579 10.262 15.5299 9.88344 15.2888C9.6046 15.1065 9.27866 15.0094 8.94549 15.0094C8.61233 15.0094 8.28638 15.1065 8.00755 15.2888C7.63293 15.5384 7.1908 15.6672 6.74074 15.6579C6.29067 15.6672 5.84855 15.5384 5.47393 15.2888C5.19905 15.0981 4.87043 15.0001 4.53598 15.0093C4.20164 15.0002 3.87313 15.0981 3.59836 15.2888C3.22433 15.5381 2.78291 15.6669 2.33349 15.6579C1.88332 15.6672 1.4411 15.5384 1.06636 15.2888C0.790932 15.0977 0.461572 14.9997 0.126465 15.0093V14.3606C0.576528 14.3513 1.01864 14.4801 1.39328 14.7297C1.6684 14.9204 1.99722 15.0184 2.33187 15.0093C2.66621 15.0183 2.99472 14.9204 3.26949 14.7297C3.64352 14.4804 4.08493 14.3516 4.53436 14.3606C4.98476 14.351 5.42726 14.4799 5.80214 14.7297C6.07712 14.9205 6.40585 15.0184 6.74041 15.0093C7.07497 15.0184 7.40371 14.9205 7.67868 14.7297C8.05722 14.4886 8.4967 14.3605 8.94549 14.3605C9.39429 14.3605 9.83377 14.4886 10.2123 14.7297C10.4912 14.9121 10.8172 15.0092 11.1504 15.0092C11.4836 15.0092 11.8096 14.9121 12.0885 14.7297C12.4671 14.4886 12.9065 14.3605 13.3553 14.3605C13.8041 14.3605 14.2436 14.4886 14.6221 14.7297C14.901 14.9121 15.227 15.0092 15.5603 15.0092C15.8935 15.0092 16.2195 14.9121 16.4984 14.7297C16.8773 14.4887 17.3171 14.3607 17.7661 14.3607C18.2152 14.3607 18.655 14.4887 19.0339 14.7297C19.3133 14.912 19.6397 15.0091 19.9733 15.0091C20.3069 15.0091 20.6334 14.912 20.9127 14.7297C21.2878 14.4803 21.7302 14.3515 22.1805 14.3606V15.0093C21.8452 14.9998 21.5157 15.0977 21.24 15.2888C20.8651 15.5381 20.423 15.6669 19.9728 15.6579Z" fill="white"/>
<path d="M19.9719 13.388C19.5217 13.3972 19.0795 13.2684 18.7047 13.0189C18.4296 12.8282 18.1008 12.7303 17.7661 12.7394C17.5206 12.7309 17.2767 12.7833 17.0562 12.8918L16.7701 12.308C17.0798 12.1563 17.4214 12.0814 17.7661 12.0897C18.2168 12.0806 18.6595 12.2097 19.0346 12.4598C19.3142 12.6426 19.641 12.7399 19.9751 12.7399C20.3092 12.7399 20.636 12.6426 20.9157 12.4598C21.2899 12.2109 21.7312 12.0821 22.1805 12.0907V12.7394C21.8459 12.7302 21.5171 12.828 21.2419 13.0186C20.8662 13.2685 20.423 13.3974 19.9719 13.388Z" fill="white"/>
<path d="M15.5578 13.3879C15.1084 13.3973 14.6669 13.2686 14.293 13.0191C14.014 12.8366 13.6879 12.7395 13.3545 12.7395C13.0212 12.7395 12.6951 12.8366 12.4161 13.0191C12.0375 13.2602 11.5979 13.3882 11.1491 13.3882C10.7003 13.3882 10.2608 13.2602 9.88214 13.0191C9.60319 12.8367 9.27714 12.7396 8.94387 12.7396C8.6106 12.7396 8.28455 12.8367 8.0056 13.0191C7.63104 13.2683 7.18922 13.397 6.73944 13.3879C6.28938 13.3972 5.84727 13.2684 5.47263 13.0188C5.1975 12.8281 4.86868 12.7301 4.53403 12.7392C4.20071 12.7302 3.87322 12.828 3.59933 13.0181C3.22463 13.2682 2.78224 13.3972 2.33187 13.3879C1.88181 13.3972 1.4397 13.2684 1.06506 13.0188C0.789935 12.8281 0.461114 12.7301 0.126465 12.7392V12.0906C0.576635 12.0812 1.01886 12.21 1.3936 12.4597C1.66858 12.6504 1.99731 12.7484 2.33187 12.7392C2.66658 12.7484 2.99546 12.6503 3.27047 12.4593C3.64441 12.2098 4.0859 12.0811 4.53533 12.0906C4.98539 12.0813 5.42749 12.2101 5.80214 12.4597C6.07712 12.6504 6.40585 12.7484 6.74041 12.7392C7.07506 12.7483 7.40388 12.6504 7.67901 12.4597C8.05762 12.2186 8.49714 12.0906 8.94598 12.0906C9.39481 12.0906 9.83434 12.2186 10.213 12.4597C10.4919 12.642 10.818 12.7391 11.1512 12.7391C11.4845 12.7391 11.8105 12.642 12.0895 12.4597C12.4682 12.2184 12.9078 12.0903 13.3568 12.0903C13.8058 12.0903 14.2454 12.2184 14.6241 12.4597C14.9098 12.6518 15.2487 12.7495 15.5928 12.7389C15.6179 12.7392 15.6429 12.7379 15.6678 12.735L15.754 13.3778C15.6889 13.3854 15.6234 13.3888 15.5578 13.3879Z" fill="white"/>
<path d="M19.9728 11.1174C19.5224 11.1266 19.0799 10.9978 18.7047 10.7483C18.4255 10.5658 18.0992 10.4687 17.7657 10.4687C17.4321 10.4687 17.1058 10.5658 16.8266 10.7483C16.448 10.9893 16.0085 11.1173 15.5598 11.1173C15.111 11.1173 14.6715 10.9893 14.293 10.7483C14.0141 10.5659 13.6882 10.4688 13.355 10.4688C13.0218 10.4688 12.6959 10.5659 12.4171 10.7483C12.0385 10.9893 11.599 11.1174 11.1503 11.1174C10.7015 11.1174 10.262 10.9893 9.88344 10.7483C9.6046 10.5659 9.27866 10.4688 8.94549 10.4688C8.61233 10.4688 8.28638 10.5659 8.00755 10.7483C7.63293 10.9979 7.1908 11.1267 6.74074 11.1174C6.29067 11.1267 5.84855 10.9979 5.47393 10.7483C5.19905 10.5575 4.87043 10.4596 4.53598 10.4687C4.20164 10.4596 3.87313 10.5576 3.59836 10.7483C3.22433 10.9976 2.78291 11.1264 2.33349 11.1174C1.88332 11.1267 1.4411 10.9979 1.06636 10.7483C0.790932 10.5572 0.461572 10.4592 0.126465 10.4687V9.82008C0.576528 9.81077 1.01864 9.93958 1.39328 10.1892C1.6684 10.3799 1.99722 10.4778 2.33187 10.4687C2.66621 10.4778 2.99472 10.3799 3.26949 10.1892C3.64352 9.93983 4.08493 9.81103 4.53436 9.82008C4.98476 9.81051 5.42726 9.93933 5.80214 10.1892C6.07712 10.3799 6.40585 10.4779 6.74041 10.4687C7.07497 10.4779 7.40371 10.3799 7.67868 10.1892C8.05722 9.94806 8.4967 9.82 8.94549 9.82C9.39429 9.82 9.83377 9.94806 10.2123 10.1892C10.4912 10.3715 10.8172 10.4687 11.1504 10.4687C11.4836 10.4687 11.8096 10.3715 12.0885 10.1892C12.4671 9.94806 12.9065 9.82 13.3553 9.82C13.8041 9.82 14.2436 9.94806 14.6221 10.1892C14.901 10.3715 15.227 10.4687 15.5603 10.4687C15.8935 10.4687 16.2195 10.3715 16.4984 10.1892C16.8773 9.94816 17.3171 9.82016 17.7661 9.82016C18.2152 9.82016 18.655 9.94816 19.0339 10.1892C19.3133 10.3715 19.6397 10.4686 19.9733 10.4686C20.3069 10.4686 20.6334 10.3715 20.9127 10.1892C21.2878 9.93973 21.7302 9.81095 22.1805 9.82008V10.4687C21.8452 10.4592 21.5157 10.5572 21.24 10.7483C20.8651 10.9976 20.423 11.1264 19.9728 11.1174Z" fill="white"/>
<path d="M15.3513 10.8423L14.7393 10.6276C14.8969 10.1748 14.9613 9.69472 14.9286 9.21634C14.8958 8.73795 14.7667 8.27113 14.5489 7.84396L12.3211 3.48147C12.2991 3.43839 12.287 3.39094 12.2857 3.34258C12.2845 3.29423 12.294 3.2462 12.3137 3.20201C12.3334 3.15783 12.3627 3.1186 12.3995 3.08721C12.4363 3.05583 12.4797 3.03307 12.5264 3.02061L16.9661 1.83682C17.1108 1.79899 17.2346 1.70555 17.3108 1.57684C17.3869 1.44813 17.4091 1.29456 17.3726 1.14954C17.3361 1.00453 17.2438 0.879793 17.1158 0.802481C16.9878 0.725169 16.8344 0.701533 16.6891 0.736716L11.3157 2.02104C11.2008 2.04818 11.0937 2.10141 11.0028 2.17659C10.9118 2.25177 10.8393 2.34688 10.791 2.45457C10.7426 2.56226 10.7198 2.67963 10.7241 2.79758C10.7284 2.91553 10.7598 3.03091 10.8159 3.13477L12.4116 6.09909C12.4521 6.17443 12.4611 6.26271 12.4368 6.34471C12.4125 6.42671 12.3568 6.4958 12.2819 6.53693L10.2224 7.67206L9.90942 7.10385L11.6874 6.12374L10.2454 3.44223C10.1423 3.2508 10.0845 3.03822 10.0767 2.82091C10.0688 2.6036 10.111 2.38739 10.2 2.18901C10.2891 1.99062 10.4225 1.81537 10.5901 1.67681C10.7577 1.53824 10.9549 1.44008 11.1665 1.3899L16.5373 0.105905C16.85 0.0268991 17.1812 0.0753364 17.4582 0.240561C17.7351 0.405786 17.9351 0.674263 18.0141 0.986932C18.0931 1.2996 18.0447 1.63085 17.8795 1.9078C17.7142 2.18476 17.4458 2.38474 17.1331 2.46374L13.081 3.54374L15.1268 7.5485C15.3844 8.05401 15.5371 8.60642 15.5757 9.17248C15.6143 9.73854 15.5379 10.3065 15.3513 10.8423Z" fill="white"/>
<path d="M8.77573 7.73377L4.83447 9.90552L5.14736 10.4733L9.08862 8.3016L8.77573 7.73377Z" fill="white"/>
<path d="M18.2886 8.68493C17.8075 8.68493 17.3373 8.54227 16.9372 8.27499C16.5372 8.00771 16.2255 7.62782 16.0414 7.18335C15.8573 6.73888 15.8091 6.2498 15.9029 5.77796C15.9968 5.30611 16.2285 4.87269 16.5686 4.53251C16.9088 4.19233 17.3422 3.96066 17.8141 3.86681C18.2859 3.77295 18.775 3.82112 19.2195 4.00523C19.664 4.18933 20.0438 4.5011 20.3111 4.90111C20.5784 5.30112 20.7211 5.77141 20.7211 6.2525C20.7204 6.89741 20.4639 7.51571 20.0079 7.97173C19.5518 8.42775 18.9335 8.68424 18.2886 8.68493ZM18.2886 4.46872C17.9358 4.46872 17.591 4.57333 17.2976 4.76934C17.0043 4.96534 16.7756 5.24393 16.6406 5.56988C16.5056 5.89582 16.4703 6.25448 16.5391 6.6005C16.608 6.94652 16.7778 7.26436 17.0273 7.51382C17.2768 7.76329 17.5946 7.93318 17.9406 8.00201C18.2867 8.07084 18.6453 8.03551 18.9713 7.9005C19.2972 7.76549 19.5758 7.53686 19.7718 7.24352C19.9678 6.95018 20.0724 6.6053 20.0724 6.2525C20.0718 5.7796 19.8837 5.32623 19.5493 4.99184C19.2149 4.65744 18.7615 4.46932 18.2886 4.46872Z" fill="white"/>
</svg>
