<svg width="24" height="20" viewBox="0 0 24 20" fill="none" xmlns="http://www.w3.org/2000/svg">
<path d="M4.65344 11.125C4.35677 11.125 4.06676 11.213 3.82009 11.3778C3.57341 11.5426 3.38116 11.7769 3.26762 12.051C3.15409 12.3251 3.12439 12.6267 3.18227 12.9176C3.24014 13.2086 3.383 13.4759 3.59278 13.6857C3.80256 13.8954 4.06984 14.0383 4.36081 14.0962C4.65178 14.1541 4.95338 14.1244 5.22747 14.0108C5.50156 13.8973 5.73583 13.705 5.90065 13.4584C6.06547 13.2117 6.15344 12.9217 6.15344 12.625C6.15344 12.2272 5.99541 11.8456 5.7141 11.5643C5.4328 11.283 5.05127 11.125 4.65344 11.125ZM4.65344 13.375C4.50511 13.375 4.3601 13.331 4.23677 13.2486C4.11343 13.1662 4.0173 13.0491 3.96053 12.912C3.90377 12.775 3.88892 12.6242 3.91785 12.4787C3.94679 12.3332 4.01822 12.1996 4.12311 12.0947C4.228 11.9898 4.36164 11.9184 4.50713 11.8894C4.65261 11.8605 4.80341 11.8753 4.94046 11.9321C5.0775 11.9889 5.19463 12.085 5.27705 12.2083C5.35946 12.3317 5.40344 12.4767 5.40344 12.625C5.40344 12.8239 5.32443 13.0147 5.18377 13.1553C5.04312 13.296 4.85236 13.375 4.65344 13.375Z" fill="white"/>
<path d="M19.6534 11.125C19.3568 11.125 19.0668 11.213 18.8201 11.3778C18.5734 11.5426 18.3812 11.7769 18.2676 12.051C18.1541 12.3251 18.1244 12.6267 18.1823 12.9176C18.2401 13.2086 18.383 13.4759 18.5928 13.6857C18.8026 13.8954 19.0698 14.0383 19.3608 14.0962C19.6518 14.1541 19.9534 14.1244 20.2275 14.0108C20.5016 13.8973 20.7358 13.705 20.9006 13.4584C21.0655 13.2117 21.1534 12.9217 21.1534 12.625C21.1534 12.2272 20.9954 11.8456 20.7141 11.5643C20.4328 11.283 20.0513 11.125 19.6534 11.125ZM19.6534 13.375C19.5051 13.375 19.3601 13.331 19.2368 13.2486C19.1134 13.1662 19.0173 13.0491 18.9605 12.912C18.9038 12.775 18.8889 12.6242 18.9179 12.4787C18.9468 12.3332 19.0182 12.1996 19.1231 12.0947C19.228 11.9898 19.3616 11.9184 19.5071 11.8894C19.6526 11.8605 19.8034 11.8753 19.9405 11.9321C20.0775 11.9889 20.1946 12.085 20.277 12.2083C20.3595 12.3317 20.4034 12.4767 20.4034 12.625C20.4034 12.8239 20.3244 13.0147 20.1838 13.1553C20.0431 13.296 19.8524 13.375 19.6534 13.375Z" fill="white"/>
<path d="M8.77844 13H15.5284V13.75H8.77844V13Z" fill="white"/>
<path d="M8.77844 11.5H15.5284V12.25H8.77844V11.5Z" fill="white"/>
<path d="M11.0284 5.875H13.2784V6.625H11.0284V5.875Z" fill="white"/>
<path d="M23.4034 9.25V8.5C23.4026 8.20191 23.2837 7.91627 23.073 7.70549C22.8622 7.4947 22.5765 7.37589 22.2784 7.375H20.7934L20.0172 4.6525L19.7847 3.72625C19.7237 3.48304 19.5832 3.26719 19.3855 3.11296C19.1877 2.95874 18.9442 2.87499 18.6934 2.875H15.5284V1.375C15.5278 1.17627 15.4486 0.985849 15.3081 0.845326C15.1676 0.704802 14.9772 0.625594 14.7784 0.625H9.52844C9.32971 0.625594 9.13929 0.704802 8.99877 0.845326C8.85824 0.985849 8.77904 1.17627 8.77844 1.375V2.875H5.61344C5.3627 2.87499 5.11914 2.95874 4.92143 3.11296C4.72372 3.26719 4.58321 3.48304 4.52219 3.72625L4.29344 4.64875L3.51344 7.375H2.02844C1.73035 7.37589 1.44472 7.4947 1.23393 7.70549C1.02315 7.91627 0.904333 8.20191 0.903442 8.5V9.25C0.90405 9.43997 0.952883 9.62668 1.04536 9.79262C1.13785 9.95856 1.27095 10.0983 1.43219 10.1987C1.09319 10.5471 0.903489 11.0139 0.903442 11.5V16C0.903959 16.1573 0.937621 16.3128 1.00223 16.4562C1.06685 16.5996 1.16096 16.7279 1.27844 16.8325V18.25C1.27933 18.5481 1.39815 18.8337 1.60893 19.0445C1.81972 19.2553 2.10535 19.3741 2.40344 19.375H5.40344C5.70154 19.3741 5.98717 19.2553 6.19795 19.0445C6.40874 18.8337 6.52755 18.5481 6.52844 18.25V17.125H17.7784V18.25C17.7793 18.5481 17.8981 18.8337 18.1089 19.0445C18.3197 19.2553 18.6053 19.3741 18.9034 19.375H21.9034C22.2015 19.3741 22.4872 19.2553 22.698 19.0445C22.9087 18.8337 23.0276 18.5481 23.0284 18.25V16.8325C23.1459 16.7279 23.24 16.5996 23.3046 16.4562C23.3693 16.3128 23.4029 16.1573 23.4034 16V11.5C23.4034 11.0139 23.2137 10.5471 22.8747 10.1987C23.0359 10.0983 23.169 9.95856 23.2615 9.79262C23.354 9.62668 23.4028 9.43997 23.4034 9.25ZM9.52844 1.375H14.7784V2.875H9.52844V1.375ZM5.24969 3.91C5.26979 3.8287 5.31653 3.75647 5.38245 3.70481C5.44838 3.65316 5.52969 3.62506 5.61344 3.625H18.6934C18.7772 3.62506 18.8585 3.65316 18.9244 3.70481C18.9904 3.75647 19.0371 3.8287 19.0572 3.91L19.1734 4.375H5.13344L5.24969 3.91ZM4.93469 5.125H19.3722L20.6547 9.625H9.86969C9.78156 9.10094 9.51056 8.62507 9.10483 8.28187C8.69909 7.93867 8.18486 7.75036 7.65344 7.75036C7.12202 7.75036 6.6078 7.93867 6.20206 8.28187C5.79632 8.62507 5.52533 9.10094 5.43719 9.625H3.65219L4.93469 5.125ZM9.10094 9.625H6.20594C6.28782 9.30322 6.47458 9.0179 6.73671 8.81412C6.99885 8.61033 7.32141 8.49969 7.65344 8.49969C7.98547 8.49969 8.30804 8.61033 8.57017 8.81412C8.83231 9.0179 9.01907 9.30322 9.10094 9.625ZM1.65344 8.5C1.65344 8.40054 1.69295 8.30516 1.76328 8.23483C1.8336 8.16451 1.92899 8.125 2.02844 8.125H3.29969L2.87219 9.625H2.02844C1.92899 9.625 1.8336 9.58549 1.76328 9.51517C1.69295 9.44484 1.65344 9.34946 1.65344 9.25V8.5ZM5.77844 18.25C5.77844 18.3495 5.73893 18.4448 5.66861 18.5152C5.59828 18.5855 5.5029 18.625 5.40344 18.625H2.40344C2.30399 18.625 2.2086 18.5855 2.13828 18.5152C2.06795 18.4448 2.02844 18.3495 2.02844 18.25V17.125H5.77844V18.25ZM22.2784 18.25C22.2784 18.3495 22.2389 18.4448 22.1686 18.5152C22.0983 18.5855 22.0029 18.625 21.9034 18.625H18.9034C18.804 18.625 18.7086 18.5855 18.6383 18.5152C18.568 18.4448 18.5284 18.3495 18.5284 18.25V17.125H22.2784V18.25ZM22.6534 16C22.6534 16.0995 22.6139 16.1948 22.5436 16.2652C22.4733 16.3355 22.3779 16.375 22.2784 16.375H2.02844C1.92899 16.375 1.8336 16.3355 1.76328 16.2652C1.69295 16.1948 1.65344 16.0995 1.65344 16V15.625H22.6534V16ZM22.6534 14.875H1.65344V11.5C1.65433 11.2019 1.77315 10.9163 1.98393 10.7055C2.19472 10.4947 2.48035 10.3759 2.77844 10.375H21.5284C21.8265 10.3759 22.1122 10.4947 22.323 10.7055C22.5337 10.9163 22.6526 11.2019 22.6534 11.5V14.875ZM22.6534 9.25C22.6534 9.34946 22.6139 9.44484 22.5436 9.51517C22.4733 9.58549 22.3779 9.625 22.2784 9.625H21.4347L21.0072 8.125H22.2784C22.3779 8.125 22.4733 8.16451 22.5436 8.23483C22.6139 8.30516 22.6534 8.40054 22.6534 8.5V9.25Z" fill="white"/>
</svg>
