<svg width="17" height="13" viewBox="0 0 17 13" fill="none" xmlns="http://www.w3.org/2000/svg">
<path d="M16.1812 1.539C15.5862 1.8 14.9522 1.973 14.2912 2.057C14.9712 1.651 15.4902 1.013 15.7342 0.244C15.1002 0.622 14.4002 0.889 13.6542 1.038C13.0522 0.397 12.1942 0 11.2582 0C9.44215 0 7.98015 1.474 7.98015 3.281C7.98015 3.541 8.00215 3.791 8.05615 4.029C5.32915 3.896 2.91615 2.589 1.29515 0.598C1.01215 1.089 0.846152 1.651 0.846152 2.256C0.846152 3.392 1.43115 4.399 2.30315 4.982C1.77615 4.972 1.25915 4.819 0.821152 4.578C0.821152 4.588 0.821152 4.601 0.821152 4.614C0.821152 6.208 1.95815 7.532 3.44915 7.837C3.18215 7.91 2.89115 7.945 2.58915 7.945C2.37915 7.945 2.16715 7.933 1.96815 7.889C2.39315 9.188 3.59915 10.143 5.03315 10.174C3.91715 11.047 2.50015 11.573 0.966152 11.573C0.697152 11.573 0.439152 11.561 0.181152 11.528C1.63415 12.465 3.35615 13 5.21315 13C11.2492 13 14.5492 8 14.5492 3.666C14.5492 3.521 14.5442 3.381 14.5372 3.242C15.1882 2.78 15.7352 2.203 16.1812 1.539Z" fill="#080809"/>
</svg>
